{
  "asset": {
    "version": "2.0",
    "generator": "Viper openworld_slice synthetic skinned fixture"
  },
  "buffers": [
    {
      "uri": "skinned_agent.bin",
      "byteLength": 336
    }
  ],
  "bufferViews": [
    {
      "buffer": 0,
      "byteOffset": 0,
      "byteLength": 36
    },
    {
      "buffer": 0,
      "byteOffset": 36,
      "byteLength": 36
    },
    {
      "buffer": 0,
      "byteOffset": 72,
      "byteLength": 24
    },
    {
      "buffer": 0,
      "byteOffset": 96,
      "byteLength": 48
    },
    {
      "buffer": 0,
      "byteOffset": 144,
      "byteLength": 6
    },
    {
      "buffer": 0,
      "byteOffset": 152,
      "byteLength": 128
    },
    {
      "buffer": 0,
      "byteOffset": 280,
      "byteLength": 8
    },
    {
      "buffer": 0,
      "byteOffset": 288,
      "byteLength": 24
    },
    {
      "buffer": 0,
      "byteOffset": 312,
      "byteLength": 24
    }
  ],
  "accessors": [
    {
      "bufferView": 0,
      "componentType": 5126,
      "count": 3,
      "type": "VEC3",
      "min": [
        -0.28,
        0.0,
        0.0
      ],
      "max": [
        0.34,
        1.18,
        0.0
      ]
    },
    {
      "bufferView": 1,
      "componentType": 5126,
      "count": 3,
      "type": "VEC3"
    },
    {
      "bufferView": 2,
      "componentType": 5123,
      "count": 3,
      "type": "VEC4"
    },
    {
      "bufferView": 3,
      "componentType": 5126,
      "count": 3,
      "type": "VEC4"
    },
    {
      "bufferView": 4,
      "componentType": 5123,
      "count": 3,
      "type": "SCALAR"
    },
    {
      "bufferView": 5,
      "componentType": 5126,
      "count": 2,
      "type": "MAT4"
    },
    {
      "bufferView": 6,
      "componentType": 5126,
      "count": 2,
      "type": "SCALAR",
      "min": [
        0.0
      ],
      "max": [
        1.0
      ]
    },
    {
      "bufferView": 7,
      "componentType": 5126,
      "count": 2,
      "type": "VEC3"
    },
    {
      "bufferView": 8,
      "componentType": 5126,
      "count": 2,
      "type": "VEC3"
    }
  ],
  "materials": [
    {
      "name": "SkinnedAgentTeal",
      "doubleSided": true,
      "pbrMetallicRoughness": {
        "baseColorFactor": [
          0.05,
          0.85,
          1.0,
          1.0
        ],
        "metallicFactor": 0.0,
        "roughnessFactor": 0.55
      }
    }
  ],
  "meshes": [
    {
      "name": "SkinnedAgentMesh",
      "primitives": [
        {
          "attributes": {
            "POSITION": 0,
            "NORMAL": 1,
            "JOINTS_0": 2,
            "WEIGHTS_0": 3
          },
          "indices": 4,
          "material": 0
        }
      ]
    }
  ],
  "skins": [
    {
      "name": "SkinnedAgentSkin",
      "joints": [
        1,
        2
      ],
      "inverseBindMatrices": 5
    }
  ],
  "animations": [
    {
      "name": "Idle",
      "samplers": [
        {
          "input": 6,
          "output": 7,
          "interpolation": "LINEAR"
        }
      ],
      "channels": [
        {
          "sampler": 0,
          "target": {
            "node": 1,
            "path": "translation"
          }
        }
      ]
    },
    {
      "name": "Wave",
      "samplers": [
        {
          "input": 6,
          "output": 8,
          "interpolation": "LINEAR"
        }
      ],
      "channels": [
        {
          "sampler": 0,
          "target": {
            "node": 1,
            "path": "translation"
          }
        }
      ]
    }
  ],
  "nodes": [
    {
      "name": "SkinnedAgentMeshNode",
      "mesh": 0,
      "skin": 0
    },
    {
      "name": "SkinnedAgentRoot",
      "children": [
        2
      ]
    },
    {
      "name": "SkinnedAgentTip",
      "translation": [
        0.0,
        0.78,
        0.0
      ]
    }
  ],
  "scenes": [
    {
      "name": "SkinnedAgentScene",
      "nodes": [
        0,
        1
      ]
    }
  ],
  "scene": 0
}
